<svg width="1600" height="520" viewBox="0 0 1600 520" fill="none" xmlns="http://www.w3.org/2000/svg">
  <rect width="1600" height="520" fill="#000000"/>
  <circle cx="800" cy="260" r="260" fill="url(#glow)"/>
  <g filter="url(#neon)" stroke="#39ff14" stroke-width="6" stroke-linecap="round" stroke-linejoin="round" fill="none">
    <!-- Cape -->
    <path d="M 560 120 Q 470 220 500 360 Q 520 440 600 470 L 640 470 Q 600 430 620 360 Q 640 220 720 120 Z"/>
    <!-- Head -->
    <circle cx="640" cy="150" r="42"/>
    <!-- Mask eyes -->
    <path d="M 622 148 L 632 148 L 628 158 Z M 648 148 L 658 148 L 654 158 Z" fill="#39ff14"/>
    <!-- Body -->
    <path d="M 600 190 Q 590 280 600 360 L 680 360 Q 690 280 680 190 Z"/>
    <!-- Chest emblem (mushroom) -->
    <ellipse cx="640" cy="270" rx="26" ry="18" fill="#39ff14"/>
    <rect x="632" y="280" width="16" height="24" rx="3" fill="#70BF70"/>
    <!-- Belt -->
    <rect x="620" y="350" width="40" height="7" rx="2"/>
    <circle cx="640" cy="353" r="4" fill="#000"/>
    <!-- Legs -->
    <path d="M 600 360 L 595 440 L 615 440 L 620 360 Z M 660 360 L 665 440 L 685 440 L 680 360 Z"/>
    <!-- Boots -->
    <ellipse cx="605" cy="445" rx="14" ry="8"/>
    <ellipse cx="675" cy="445" rx="14" ry="8"/>
    <!-- Arms -->
    <path d="M 590 210 Q 540 280 560 360 L 585 360 Q 565 280 610 210 Z"/>
    <path d="M 690 210 Q 740 280 720 360 L 695 360 Q 715 280 670 210 Z"/>
  </g>
  <defs>
    <filter id="neon" x="400" y="80" width="800" height="400" filterUnits="userSpaceOnUse" color-interpolation-filters="sRGB">
      <feGaussianBlur stdDeviation="4"/>
    </filter>
    <radialGradient id="glow" cx="0" cy="0" r="1" gradientUnits="userSpaceOnUse" gradientTransform="translate(800 260) scale(260)">
      <stop stop-color="#39ff14" stop-opacity="0.35"/>
      <stop offset="0.6" stop-color="#39ff14" stop-opacity="0.1"/>
      <stop offset="1" stop-opacity="0"/>
    </radialGradient>
  </defs>
</svg>